<?xml version="1.0" encoding="UTF-8" standalone="no"?>
<svg
   xmlns:dc="http://purl.org/dc/elements/1.1/"
   xmlns:cc="http://creativecommons.org/ns#"
   xmlns:rdf="http://www.w3.org/1999/02/22-rdf-syntax-ns#"
   xmlns:svg="http://www.w3.org/2000/svg"
   xmlns="http://www.w3.org/2000/svg"
   viewBox="0 0 9.677083 13.333333"
   height="13.333333"
   width="9.677083"
   xml:space="preserve"
   id="svg2"
   version="1.1"><metadata
     id="metadata8"><rdf:RDF><cc:Work
         rdf:about=""><dc:format>image/svg+xml</dc:format><dc:type
           rdf:resource="http://purl.org/dc/dcmitype/StillImage" /></cc:Work></rdf:RDF></metadata><defs
     id="defs6" /><g
     transform="matrix(1.3333333,0,0,-1.3333333,0,13.333333)"
     id="g10"><g
       transform="translate(1,-1.260742)"
       id="g12"><path
         id="path14"
         style="fill:#d41443;fill-opacity:1;fill-rule:nonzero;stroke:none"
         d="m 0.605469,11.056611 c -0.439546,0.334392 -1.066946,0.249147 -1.401338,-0.190399 -0.334391,-0.439547 -0.249146,-1.066947 0.1904,-1.401339 z M 5.257862,6.260742 5.863331,5.464874 c 0.248586,0.189116 0.394531,0.483522 0.394531,0.795868 0,0.312347 -0.145945,0.606753 -0.394531,0.795869 z M -0.605469,3.056611 C -1.045015,2.722219 -1.13026,2.094819 -0.795869,1.655272 -0.461477,1.215727 0.165923,1.130482 0.605469,1.464873 Z m 0,6.408262 5.257861,-3.999999 1.210939,1.591737 -5.257862,4 z m 5.257861,-2.408262 -5.257861,-4 1.210938,-1.591738 5.257862,4.000001 z" /></g></g></svg>