<svg width="65" height="16" viewBox="0 0 65 16" fill="none" xmlns="http://www.w3.org/2000/svg">
<path d="M0.486373 12V0.799999H4.98237C6.14504 0.799999 7.03037 1.072 7.63837 1.616C8.25704 2.14933 8.56637 2.83733 8.56637 3.68C8.56637 4.384 8.37437 4.94933 7.99037 5.376C7.61704 5.792 7.15837 6.07467 6.61437 6.224C7.25437 6.352 7.78237 6.672 8.19837 7.184C8.61437 7.68533 8.82237 8.272 8.82237 8.944C8.82237 9.82933 8.50237 10.56 7.86237 11.136C7.22237 11.712 6.31571 12 5.14237 12H0.486373ZM2.53437 5.504H4.67837C5.25437 5.504 5.69704 5.37067 6.00637 5.104C6.31571 4.83733 6.47037 4.45867 6.47037 3.968C6.47037 3.49867 6.31571 3.13067 6.00637 2.864C5.70771 2.58667 5.25437 2.448 4.64637 2.448H2.53437V5.504ZM2.53437 10.336H4.82237C5.43037 10.336 5.89971 10.1973 6.23037 9.92C6.57171 9.632 6.74237 9.232 6.74237 8.72C6.74237 8.19733 6.56637 7.78667 6.21437 7.488C5.86237 7.18933 5.38771 7.04 4.79037 7.04H2.53437V10.336ZM18.1801 4.064V12H16.3721L16.2121 10.656C15.9668 11.1253 15.6095 11.4987 15.1401 11.776C14.6815 12.0533 14.1375 12.192 13.5081 12.192C12.5268 12.192 11.7641 11.8827 11.2201 11.264C10.6761 10.6453 10.4041 9.73867 10.4041 8.544V4.064H12.4521V8.352C12.4521 9.03467 12.5908 9.55733 12.8681 9.92C13.1455 10.2827 13.5775 10.464 14.1641 10.464C14.7401 10.464 15.2095 10.2613 15.5721 9.856C15.9455 9.45067 16.1321 8.88533 16.1321 8.16V4.064H18.1801ZM21.2585 15.52L23.0985 11.472H22.6185L19.5305 4.064H21.7545L23.9785 9.648L26.2985 4.064H28.4745L23.4345 15.52H21.2585ZM33.6259 12V4.064H35.4339L35.5939 5.408C35.8392 4.93867 36.1912 4.56533 36.6499 4.288C37.1192 4.01067 37.6685 3.872 38.2979 3.872C39.2792 3.872 40.0419 4.18133 40.5859 4.8C41.1299 5.41867 41.4019 6.32533 41.4019 7.52V12H39.3539V7.712C39.3539 7.02933 39.2152 6.50667 38.9379 6.144C38.6605 5.78133 38.2285 5.6 37.6419 5.6C37.0659 5.6 36.5912 5.80267 36.2179 6.208C35.8552 6.61333 35.6739 7.17867 35.6739 7.904V12H33.6259ZM47.1682 12.192C46.4002 12.192 45.7069 12.016 45.0882 11.664C44.4802 11.312 43.9949 10.8267 43.6322 10.208C43.2802 9.57867 43.1042 8.85333 43.1042 8.032C43.1042 7.21067 43.2856 6.49067 43.6482 5.872C44.0109 5.24267 44.4962 4.752 45.1042 4.4C45.7229 4.048 46.4162 3.872 47.1842 3.872C47.9416 3.872 48.6242 4.048 49.2322 4.4C49.8509 4.752 50.3362 5.24267 50.6882 5.872C51.0509 6.49067 51.2322 7.21067 51.2322 8.032C51.2322 8.85333 51.0509 9.57867 50.6882 10.208C50.3362 10.8267 49.8509 11.312 49.2322 11.664C48.6136 12.016 47.9256 12.192 47.1682 12.192ZM47.1682 10.416C47.7016 10.416 48.1656 10.2187 48.5602 9.824C48.9549 9.41867 49.1522 8.82133 49.1522 8.032C49.1522 7.24267 48.9549 6.65067 48.5602 6.256C48.1656 5.85067 47.7069 5.648 47.1842 5.648C46.6402 5.648 46.1709 5.85067 45.7762 6.256C45.3922 6.65067 45.2002 7.24267 45.2002 8.032C45.2002 8.82133 45.3922 9.41867 45.7762 9.824C46.1709 10.2187 46.6349 10.416 47.1682 10.416ZM54.3341 12L52.0141 4.064H54.0461L55.4221 9.776L57.0221 4.064H59.2941L60.8941 9.776L62.2861 4.064H64.3181L61.9821 12H59.8541L58.1581 6.064L56.4621 12H54.3341Z" fill="#D41443"/>
</svg>
