<svg aria-hidden="true" style="position: absolute; width: 0; height: 0; overflow: hidden;" version="1.1" xmlns="http://www.w3.org/2000/svg" xmlns:xlink="http://www.w3.org/1999/xlink">
<defs>
<symbol id="icon-buy-now-2" viewBox="0 0 130 32">
<path fill="#d41443" style="fill: var(--color1, #d41443)" d="M0.973 24v-22.4h8.992c2.325 0 4.096 0.544 5.312 1.632 1.237 1.067 1.856 2.443 1.856 4.128 0 1.408-0.384 2.539-1.152 3.392-0.747 0.832-1.664 1.397-2.752 1.696 1.28 0.256 2.336 0.896 3.168 1.92 0.832 1.003 1.248 2.176 1.248 3.52 0 1.771-0.64 3.232-1.92 4.384s-3.093 1.728-5.44 1.728h-9.312zM5.069 11.008h4.288c1.152 0 2.037-0.267 2.656-0.8s0.928-1.291 0.928-2.272c0-0.939-0.309-1.675-0.928-2.208-0.597-0.555-1.504-0.832-2.72-0.832h-4.224v6.112zM5.069 20.672h4.576c1.216 0 2.155-0.277 2.816-0.832 0.683-0.576 1.024-1.376 1.024-2.4 0-1.045-0.352-1.867-1.056-2.464s-1.653-0.896-2.848-0.896h-4.512v6.592zM36.36 8.128v15.872h-3.616l-0.32-2.688c-0.491 0.939-1.205 1.685-2.144 2.24-0.917 0.555-2.005 0.832-3.264 0.832-1.963 0-3.488-0.619-4.576-1.856s-1.632-3.051-1.632-5.44v-8.96h4.096v8.576c0 1.365 0.277 2.411 0.832 3.136s1.419 1.088 2.592 1.088c1.152 0 2.091-0.405 2.816-1.216 0.747-0.811 1.12-1.941 1.12-3.392v-8.192h4.096zM42.517 31.040l3.68-8.096h-0.96l-6.176-14.816h4.448l4.448 11.168 4.64-11.168h4.352l-10.080 22.912h-4.352zM67.252 24v-15.872h3.616l0.32 2.688c0.491-0.939 1.195-1.685 2.112-2.24 0.939-0.555 2.037-0.832 3.296-0.832 1.963 0 3.488 0.619 4.576 1.856s1.632 3.051 1.632 5.44v8.96h-4.096v-8.576c0-1.365-0.277-2.411-0.832-3.136s-1.419-1.088-2.592-1.088c-1.152 0-2.101 0.405-2.848 1.216-0.725 0.811-1.088 1.941-1.088 3.392v8.192h-4.096zM94.336 24.384c-1.536 0-2.923-0.352-4.16-1.056-1.216-0.704-2.187-1.675-2.912-2.912-0.704-1.259-1.056-2.709-1.056-4.352s0.363-3.083 1.088-4.32c0.725-1.259 1.696-2.24 2.912-2.944 1.237-0.704 2.624-1.056 4.16-1.056 1.515 0 2.88 0.352 4.096 1.056 1.237 0.704 2.208 1.685 2.912 2.944 0.725 1.237 1.088 2.677 1.088 4.32s-0.363 3.093-1.088 4.352c-0.704 1.237-1.675 2.208-2.912 2.912s-2.613 1.056-4.128 1.056zM94.336 20.832c1.067 0 1.995-0.395 2.784-1.184 0.789-0.811 1.184-2.005 1.184-3.584s-0.395-2.763-1.184-3.552c-0.789-0.811-1.707-1.216-2.752-1.216-1.088 0-2.027 0.405-2.816 1.216-0.768 0.789-1.152 1.973-1.152 3.552s0.384 2.773 1.152 3.584c0.789 0.789 1.717 1.184 2.784 1.184zM108.668 24l-4.64-15.872h4.064l2.752 11.424 3.2-11.424h4.544l3.2 11.424 2.784-11.424h4.064l-4.672 15.872h-4.256l-3.392-11.872-3.392 11.872h-4.256z"></path>
</symbol>
<symbol id="icon-arrow-2" viewBox="0 0 26 32">
<path fill="none" stroke="#d41443" style="stroke: var(--color1, #d41443)" stroke-linejoin="round" stroke-linecap="round" stroke-miterlimit="4" stroke-width="6.4" d="M3.542 3.2l16.825 12.8-16.825 12.8"></path>
</symbol>
<symbol id="icon-burger-2" viewBox="0 0 46 32">
<path fill="none" stroke="#d41443" style="stroke: var(--color1, #d41443)" stroke-linejoin="miter" stroke-linecap="butt" stroke-miterlimit="4" stroke-width="2.2857" d="M0 2.286h45.714"></path>
<path fill="none" stroke="#d41443" style="stroke: var(--color1, #d41443)" stroke-linejoin="miter" stroke-linecap="butt" stroke-miterlimit="4" stroke-width="2.2857" d="M0 16h45.714"></path>
<path fill="none" stroke="#d41443" style="stroke: var(--color1, #d41443)" stroke-linejoin="miter" stroke-linecap="butt" stroke-miterlimit="4" stroke-width="2.2857" d="M0 29.714h45.714"></path>
</symbol>
<symbol id="icon-close-1" viewBox="0 0 32 32">
<path fill="#fff" style="fill: var(--color2, #fff)" d="M0.536 1.511l29.36 30.489 1.569-1.511-29.36-30.489z"></path>
<path fill="#fff" style="fill: var(--color2, #fff)" d="M1.511 31.464l30.489-29.36-1.511-1.569-30.489 29.36z"></path>
</symbol>
<symbol id="icon-close" viewBox="0 0 32 32">
<path d="M31.439 3.166l-3.166-3.166-12.554 12.552-12.552-12.552-3.166 3.166 12.552 12.552-12.552 12.554 3.166 3.166 12.552-12.554 12.554 12.554 3.166-3.166-12.554-12.554 12.554-12.552z"></path>
</symbol>
</defs>
</svg>
