<svg aria-hidden="true" style="position:absolute;width:0;height:0;overflow:hidden" xmlns="http://www.w3.org/2000/svg"><defs><symbol id="icon-buy-now" viewBox="0 0 130 32"><path fill="#d41443" style="fill:var(--color1, #d41443)" d="M.973 24V1.6h8.992c2.325 0 4.096.544 5.312 1.632 1.237 1.067 1.856 2.443 1.856 4.128 0 1.408-.384 2.539-1.152 3.392a5.624 5.624 0 0 1-2.752 1.696c1.28.256 2.336.896 3.168 1.92.832 1.003 1.248 2.176 1.248 3.52 0 1.771-.64 3.232-1.92 4.384S12.632 24 10.285 24H.973zm4.096-12.992h4.288c1.152 0 2.037-.267 2.656-.8s.928-1.291.928-2.272c0-.939-.309-1.675-.928-2.208-.597-.555-1.504-.832-2.72-.832H5.069v6.112zm0 9.664h4.576c1.216 0 2.155-.277 2.816-.832.683-.576 1.024-1.376 1.024-2.4 0-1.045-.352-1.867-1.056-2.464s-1.653-.896-2.848-.896H5.069v6.592zM36.36 8.128V24h-3.616l-.32-2.688a5.55 5.55 0 0 1-2.144 2.24c-.917.555-2.005.832-3.264.832-1.963 0-3.488-.619-4.576-1.856s-1.632-3.051-1.632-5.44v-8.96h4.096v8.576c0 1.365.277 2.411.832 3.136s1.419 1.088 2.592 1.088c1.152 0 2.091-.405 2.816-1.216.747-.811 1.12-1.941 1.12-3.392V8.128h4.096zm6.157 22.912 3.68-8.096h-.96L39.061 8.128h4.448l4.448 11.168 4.64-11.168h4.352L46.869 31.04h-4.352zM67.252 24V8.128h3.616l.32 2.688a5.618 5.618 0 0 1 2.112-2.24c.939-.555 2.037-.832 3.296-.832 1.963 0 3.488.619 4.576 1.856s1.632 3.051 1.632 5.44V24h-4.096v-8.576c0-1.365-.277-2.411-.832-3.136S76.457 11.2 75.284 11.2c-1.152 0-2.101.405-2.848 1.216-.725.811-1.088 1.941-1.088 3.392V24h-4.096zm27.084.384c-1.536 0-2.923-.352-4.16-1.056a7.943 7.943 0 0 1-2.912-2.912c-.704-1.259-1.056-2.709-1.056-4.352s.363-3.083 1.088-4.32c.725-1.259 1.696-2.24 2.912-2.944 1.237-.704 2.624-1.056 4.16-1.056 1.515 0 2.88.352 4.096 1.056a7.574 7.574 0 0 1 2.912 2.944c.725 1.237 1.088 2.677 1.088 4.32s-.363 3.093-1.088 4.352c-.704 1.237-1.675 2.208-2.912 2.912s-2.613 1.056-4.128 1.056zm0-3.552c1.067 0 1.995-.395 2.784-1.184.789-.811 1.184-2.005 1.184-3.584s-.395-2.763-1.184-3.552c-.789-.811-1.707-1.216-2.752-1.216-1.088 0-2.027.405-2.816 1.216-.768.789-1.152 1.973-1.152 3.552s.384 2.773 1.152 3.584c.789.789 1.717 1.184 2.784 1.184zM108.668 24l-4.64-15.872h4.064l2.752 11.424 3.2-11.424h4.544l3.2 11.424 2.784-11.424h4.064L123.964 24h-4.256l-3.392-11.872L112.924 24h-4.256z"/></symbol><symbol id="icon-close" viewBox="0 0 32 32"><path fill="#fff" style="fill:var(--color2, #fff)" d="M.536 1.511 29.896 32l1.569-1.511L2.105 0z"/><path fill="#fff" style="fill:var(--color2, #fff)" d="M1.511 31.464 32 2.104 30.489.535 0 29.895z"/></symbol><symbol id="icon-burger" viewBox="0 0 49 32"><path fill="#d41443" style="fill:var(--color1, #d41443)" d="M0 2.462h49.231V0H0zM0 17.231h49.231v-2.462H0zM0 32h49.231v-2.462H0z"/></symbol><symbol id="icon-arrow" viewBox="0 0 23 32"><path fill="#d41443" style="fill:var(--color1, #d41443)" d="M5.138.653a3.2 3.2 0 0 0-3.875 5.093zM20.025 16l1.938 2.547a3.2 3.2 0 0 0 0-5.094zM1.262 26.253a3.2 3.2 0 1 0 3.875 5.093zm0-20.506 16.825 12.8 3.875-5.094L5.137.653zm16.826 7.706-16.825 12.8 3.875 5.094 16.825-12.8z"/></symbol></defs></svg>